# xmcd CD database generated by RipIT
#
# Track frame offsets:
# 150
# 19589
# 33791
# 48929
# 67206
# 84833
# 98483
# 113672
# 125949
# 137764
# 156464
#
# Disc length: 2247 seconds
#
# Revision: 0
# Processed by: cddbd v1.5.1PL0 Copyright (c) Steve Scherf et al.
# Submitted via: RipIT 3.3.3 www.suwald.com/ripit/ripit.html at Wed Jun 22 17:10:11 CEST 2005
#
DISCID=8b08c50b
DTITLE=Leonard Cohen - New Skin for the Old Ceremony
DYEAR=1974
DGENRE=Slow Rock
TTITLE0=Is This What You Wanted
TTITLE1=Chelsea Hotel No. 2
TTITLE2=Lover Lover Lover
TTITLE3=Field Commander Cohen
TTITLE4=Why Don't You Try
TTITLE5=There Is a War
TTITLE6=A Singer Must Die
TTITLE7=I Tried to Leave You
TTITLE8=Who by Fire
TTITLE9=Take This Longing
TTITLE10=Leaving Green Sleeves
EXTD=YEAR: 1974 ID3G: 81\n
EXTT0=
EXTT1=
EXTT2=
EXTT3=
EXTT4=
EXTT5=
EXTT6=
EXTT7=
EXTT8=
EXTT9=
EXTT10=
PLAYORDER=
